<svg width="107" height="65" viewBox="0 0 107 65" fill="none" xmlns="http://www.w3.org/2000/svg">
<path fill-rule="evenodd" clip-rule="evenodd" d="M79.9689 20.5022L105.021 4.87097L103.386 2.23204L77.447 18.4166C69.8537 13.2697 58.0698 14.3914 52.4043 22.7452C52.0306 23.2961 51.685 23.8507 51.3677 24.4082L35.6257 29.4866C30.9989 26.8514 25.4076 26.34 20.3968 28.1633C15.3067 30.0155 11.2672 34.3572 9.43211 39.4765L1.12755 40.5107L1.516 43.592L8.59053 42.7109C8.08071 45.8037 8.37081 49.0692 9.71059 52.18C11.7143 56.8323 14.7536 60.2253 18.5898 62.0874C22.4277 63.9501 26.9021 64.2023 31.6306 62.8676C41.2127 60.1627 47.8693 50.2176 44.0148 39.5999C42.8481 36.3859 41.011 33.7496 38.759 31.7393L49.6528 28.225C48.7149 31.052 48.4965 33.9017 49.0191 36.6691C49.7428 40.5015 51.8616 44.0415 55.2 47.0587C62.6195 53.7645 74.555 54.1386 81.4084 45.2137C87.6515 37.0835 86.1857 26.6832 79.9689 20.5022ZM76.4414 21.5104C70.1402 16.6027 59.7264 17.4693 54.9592 24.4985C54.5203 25.1456 54.1296 25.792 53.7859 26.4359C52.0059 29.7708 51.479 33.0493 52.0548 36.0985C52.6314 39.1525 54.3401 42.1114 57.2627 44.7529C63.5711 50.4544 73.3811 50.578 78.9601 43.3127C84.6328 35.9253 82.7143 26.396 76.4414 21.5104ZM34.6278 32.4968C30.6815 30.036 25.7958 29.5038 21.456 31.0829C17.0361 32.6912 13.4684 36.671 12.0735 41.3463C11.1462 44.4541 11.195 47.8173 12.5458 50.9535C14.3113 55.0529 16.8812 57.8138 19.9275 59.2923C22.9722 60.7701 26.6535 61.0452 30.7873 59.8783C38.9296 57.5799 44.2526 49.3069 41.1124 40.6567C39.7764 36.9767 37.4317 34.2452 34.6278 32.4968Z" fill="#AAAAAA" stroke="#AAAAAA" stroke-width="2"/>
</svg>
